<svg xmlns="http://www.w3.org/2000/svg" xmlns:xlink="http://www.w3.org/1999/xlink" id="Camada_1" data-name="Camada 1" viewBox="0 0 389.66 317.81"><defs><style>.cls-1{fill-rule:evenodd;fill:url(#GradientFill_1);}</style><linearGradient id="GradientFill_1" y1="158.9" x2="389.66" y2="158.9" gradientUnits="userSpaceOnUse"><stop offset="0" stop-color="#009dc5"/><stop offset="1" stop-color="#00649c"/></linearGradient></defs><title>saneago_logo2017</title><path class="cls-1" d="M0,312.31l5.58-9.47a20.84,20.84,0,0,0,11.83,4.06c5.33,0,8.11-2.37,8.11-5.58,0-4.39-5.83-5.32-12.42-8.71-6.93-3.38-11.75-7.86-11.75-17.07,0-9.8,8.2-16.06,18.76-16.06,9.47,0,14.45,3,17,4.82l-5.32,9.47c-1.94-1.18-6.34-3.38-10.73-3.38s-6.76,1.69-6.76,5.07c0,4,4.39,5.07,10.4,7.78,7.44,3.3,13.95,7.1,13.95,17.33,0,10.65-7.78,17.24-20.79,17.24-9.3,0-15.3-3.47-17.83-5.49H0ZM194.83,197A84.07,84.07,0,0,1,157,188,62.35,62.35,0,0,0,209,126.71V98.54h0a34.18,34.18,0,0,1,66.27-11.79,84,84,0,0,1,2.86,11.8h28.4a112.17,112.17,0,0,0-2-11.28A61.91,61.91,0,0,0,300.92,75,112.55,112.55,0,0,0,83.16,98.54h28.4A84.46,84.46,0,0,1,232.6,37a62.38,62.38,0,0,0-51.83,61.47s0,0,0,.05h0V126.7h0a34.18,34.18,0,0,1-66.62,10.79,83.9,83.9,0,0,1-2.57-10.79H83.18A111.94,111.94,0,0,0,87,144.91l0.15,0.5A112.55,112.55,0,0,0,306.48,126.7H278.07A84.45,84.45,0,0,1,194.83,197h0Zm135.92,91.77c0-15.21,10.23-29.24,29.5-29.24,19.44,0,29.41,13.78,29.41,28.82,0,15.21-9.72,29.5-29.08,29.5s-29.84-13.95-29.84-29.07h0Zm44.54,0h0c0-9.8-4.14-18.34-14.71-18.34-10.73,0-15.38,8.2-15.38,17.92,0,9.89,4.56,18.59,15,18.59,10.73,0,15-8.45,15-18.17h0Zm-104.64-.17c0-15.3,11.41-29.07,31.44-29.07,8.71,0,14.37,1.86,18.76,5l-5.92,10.14a22.33,22.33,0,0,0-13.1-3.89c-11.16,0-16.74,7.1-16.74,17.5s4.73,18.59,15.72,18.59a18.27,18.27,0,0,0,8.62-1.77v-9.72h-9.8V284.84h22.82v27.72c-4,2.37-10.14,5.24-21.55,5.24-19.86,0-30.26-13.95-30.26-29.24h0ZM233.5,260.5h13.1l22.14,56.29H253.87l-3.3-9.47H229.11l-3.3,9.47H212L233.5,260.5h0Zm13.27,36h0l-4.14-11.58a98.83,98.83,0,0,1-2.79-9.8h-0.17c-0.34,1-1.27,5.16-2.87,9.8l-4.06,11.58h14Zm-75.88-36h33.64v11.16H184.42v10.9h17.75V293H184.42v12.59h20.71v11.16H170.89V260.5h0Zm-64.34,0h13.78l18.26,26.2c3.63,5.24,5.75,9.21,6.17,9.89h0.17c-0.08-.59-0.34-4.82-0.34-9.21V260.5h12.34v56.29H144.5l-20-28.4c-3.47-4.82-5.16-7.94-5.75-8.79h-0.17c0.08,0.59.34,4.06,0.34,7.86v29.33H106.55V260.5h0Zm-42.15,0h13.1l22.14,56.29H84.76l-3.3-9.47H60l-3.3,9.47H42.92L64.39,260.5h0Zm13.27,36h0l-4.14-11.58a98.83,98.83,0,0,1-2.79-9.8H70.56c-0.34,1-1.27,5.16-2.87,9.8l-4.06,11.58h14Z"/></svg>
