<svg xmlns="http://www.w3.org/2000/svg" width="130" height="28.889" viewBox="0 0 130 28.889">
  <g id="elemento_-_1._Logo_Saneago_horiz_" data-name="elemento - 1. Logo Saneago (horiz)" transform="translate(-46 -15)">
    <g id="Grupo_54" data-name="Grupo 54" transform="translate(46 15)">
      <g id="Grupo_51" data-name="Grupo 51" transform="translate(36.044 7.894)">
        <path id="Caminho_1" data-name="Caminho 1" d="M110.9,36.987l1.341-2.276a5.006,5.006,0,0,0,2.844.976c1.279,0,1.95-.569,1.95-1.341,0-1.057-1.4-1.28-2.986-2.092-1.666-.813-2.824-1.889-2.824-4.1,0-2.357,1.97-3.86,4.51-3.86a6.51,6.51,0,0,1,4.083,1.158l-1.28,2.275a5.436,5.436,0,0,0-2.58-.813c-1.036,0-1.625.406-1.625,1.219,0,.955,1.056,1.219,2.5,1.869,1.787.792,3.352,1.706,3.352,4.165,0,2.559-1.869,4.144-5,4.144a6.9,6.9,0,0,1-4.286-1.32" transform="translate(-110.905 -24.29)" fill="#fff"/>
        <path id="Caminho_2" data-name="Caminho 2" d="M148.118,25.041h3.149l5.322,13.529h-3.575l-.792-2.275h-5.16l-.792,2.275h-3.311Zm3.19,8.654-1-2.783a23.631,23.631,0,0,1-.67-2.356H149.6c-.082.244-.3,1.239-.691,2.356l-.975,2.783Z" transform="translate(-132.541 -24.797)" fill="#fff"/>
        <path id="Caminho_3" data-name="Caminho 3" d="M190.319,25.04h3.311l4.388,6.3c.873,1.259,1.381,2.214,1.483,2.377h.041c-.02-.142-.082-1.158-.082-2.215V25.04h2.967V38.569H199.44l-4.815-6.826c-.833-1.158-1.239-1.91-1.381-2.113H193.2c.02.142.082.975.082,1.89v7.049h-2.966Z" transform="translate(-164.509 -24.796)" fill="#fff"/>
        <path id="Caminho_4" data-name="Caminho 4" d="M237.6,25.04h8.085v2.682h-4.835v2.62h4.266v2.519h-4.266v3.027h4.977V38.57H237.6Z" transform="translate(-196.421 -24.796)" fill="#fff"/>
        <path id="Caminho_5" data-name="Caminho 5" d="M273.182,25.041h3.149l5.323,13.529h-3.576l-.793-2.275h-5.16l-.793,2.275h-3.311Zm3.19,8.654-1-2.783a23.663,23.663,0,0,1-.671-2.356h-.041c-.081.244-.3,1.239-.69,2.356L273,33.695Z" transform="translate(-216.959 -24.797)" fill="#fff"/>
        <path id="Caminho_6" data-name="Caminho 6" d="M311.989,31.279c0-3.677,2.743-6.988,7.557-6.988a7.384,7.384,0,0,1,4.51,1.2l-1.422,2.438a5.371,5.371,0,0,0-3.149-.935c-2.682,0-4.023,1.707-4.023,4.205s1.138,4.469,3.778,4.469a4.386,4.386,0,0,0,2.072-.427V32.9h-2.357V30.385h5.485v6.663a9.425,9.425,0,0,1-5.18,1.259c-4.774,0-7.273-3.352-7.273-7.029" transform="translate(-246.637 -24.29)" fill="#fff"/>
        <path id="Caminho_7" data-name="Caminho 7" d="M356.434,31.319a6.759,6.759,0,0,1,7.089-7.029,6.663,6.663,0,0,1,7.07,6.927c0,3.657-2.336,7.09-6.988,7.09a6.8,6.8,0,0,1-7.171-6.988m10.705,0c0-2.357-1-4.408-3.535-4.408-2.58,0-3.7,1.97-3.7,4.307,0,2.377,1.1,4.469,3.616,4.469,2.58,0,3.616-2.032,3.616-4.368" transform="translate(-276.637 -24.29)" fill="#fff"/>
      </g>
      <path id="Caminho_8" data-name="Caminho 8" d="M0,12.648H3.645a10.841,10.841,0,0,1,15.536-7.9,8.007,8.007,0,0,0-6.652,7.889v.007h0v3.615a4.388,4.388,0,0,1-8.551,1.385,10.761,10.761,0,0,1-.33-1.385H0A14.3,14.3,0,0,0,.5,18.6l.02.064a14.446,14.446,0,0,0,28.147-2.4H25.018A10.842,10.842,0,0,1,9.481,24.136a8,8,0,0,0,6.665-7.872V12.648h0a4.388,4.388,0,0,1,8.506-1.513,10.884,10.884,0,0,1,.368,1.514h3.645A14.506,14.506,0,0,0,28.41,11.2a7.915,7.915,0,0,0-.459-1.579A14.446,14.446,0,0,0,0,12.648" fill="#fff"/>
    </g>
  </g>
</svg>
