<svg xmlns="http://www.w3.org/2000/svg" xmlns:svg="http://www.w3.org/2000/svg" preserveAspectRatio="xMidYMid meet" version="1.0" viewBox="76.78 49.28 585.63 586.02" class="s-ion-icon"> <g class="layer">  <title>Layer 1</title>  <g fill="#000000" id="svg_1" transform="matrix(0.1 0 0 -0.1 0 0)">   <path d="m3168,-503c-8,-8 -24,-18 -37,-22c-12,-4 -20,-9 -18,-12c3,-2 -10,-20 -29,-40c-19,-19 -37,-46 -40,-59c-3,-13 -10,-24 -15,-24c-5,0 -9,-9 -9,-20c0,-11 -7,-20 -15,-20c-8,0 -16,-8 -16,-17c-1,-19 -4,-34 -8,-43c-4,-9 -13,-65 -12,-82c0,-10 -4,-20 -10,-23c-5,-4 -9,-18 -9,-32c0,-33 -27,-64 -48,-55c-15,5 -15,4 -2,-12c12,-16 12,-20 -1,-30c-13,-9 -14,-23 -8,-82c8,-80 -3,-127 -40,-170c-14,-16 -20,-32 -16,-45c5,-14 -4,-30 -34,-58c-29,-28 -43,-52 -51,-86c-18,-79 -37,-115 -61,-115c-15,0 -19,-4 -15,-15c13,-35 19,-172 7,-179c-8,-5 -9,-12 -2,-19c5,-7 12,-33 16,-58c7,-50 -9,-75 -44,-66c-14,3 -17,0 -14,-13c2,-9 -6,-33 -18,-54c-32,-54 -49,-169 -34,-221c11,-33 10,-46 -1,-66c-7,-13 -13,-33 -14,-44c0,-11 -7,-31 -16,-43c-9,-13 -13,-26 -10,-29c3,-4 -1,-17 -9,-29c-8,-13 -12,-30 -9,-39c4,-9 -1,-24 -10,-34c-9,-10 -18,-34 -19,-52c-3,-36 -34,-75 -95,-116c-36,-25 -82,-31 -82,-10c0,6 -4,19 -10,27c-7,12 -12,12 -29,-4c-11,-10 -25,-15 -31,-11c-6,3 -24,-5 -41,-19c-17,-14 -38,-26 -48,-26c-9,0 -32,-20 -50,-44c-19,-24 -41,-46 -51,-49c-19,-5 -33,-54 -18,-63c5,-3 2,-14 -8,-25c-11,-12 -15,-28 -11,-46c3,-15 1,-36 -5,-46c-5,-10 -10,-31 -10,-48c-1,-16 -7,-34 -15,-40c-7,-6 -13,-19 -13,-29c0,-24 -11,-32 -26,-19c-10,8 -11,5 -1,-20c10,-26 8,-37 -13,-81c-14,-27 -28,-50 -32,-50c-4,0 -17,-18 -29,-40c-19,-33 -26,-39 -46,-34c-19,5 -30,-1 -52,-25c-27,-30 -29,-31 -119,-31c-102,0 -89,10 -145,-106c-23,-47 -48,-70 -70,-65c-5,1 -20,-5 -35,-14c-15,-8 -39,-19 -54,-25c-22,-7 -28,-16 -28,-40c0,-17 -5,-30 -12,-30c-9,0 -9,-3 0,-12c10,-10 1,-16 -40,-29c-42,-13 -53,-21 -59,-43c-9,-33 -2,-56 17,-56c8,0 14,-6 14,-14c0,-8 7,-16 15,-20c9,-3 15,-18 15,-37c0,-24 4,-30 15,-25c9,3 15,0 15,-10c0,-12 6,-15 25,-10c16,4 25,2 25,-5c0,-7 7,-8 18,-4c9,4 37,9 62,11c34,2 49,-1 63,-16c30,-33 50,-24 74,30c19,44 25,50 53,50c41,0 100,-25 100,-43c0,-8 9,-22 20,-32c11,-10 20,-24 20,-31c0,-15 54,-47 63,-38c3,3 14,1 26,-5c13,-7 22,-8 26,-1c3,6 20,17 37,26c27,14 31,14 47,0c22,-20 37,-20 45,-1c3,9 18,15 40,15c27,0 36,-5 41,-21c7,-21 8,-21 31,7c13,16 23,37 24,47c0,9 7,17 16,17c9,0 29,14 44,30c30,33 31,50 6,101c-13,26 -13,34 0,64c14,35 28,44 38,26c7,-10 194,-27 203,-18c3,3 -4,25 -15,49c-27,59 -64,169 -58,175c3,3 -5,14 -17,24c-21,17 -21,19 -5,35c13,13 20,15 31,6c8,-7 17,-9 20,-6c10,10 111,-19 133,-38c11,-10 28,-16 36,-13c9,4 22,-1 31,-9c20,-20 33,-20 41,0c4,11 14,15 31,12c30,-6 49,13 40,41c-4,14 0,21 14,26c11,3 23,15 26,26c4,10 9,19 13,19c16,-1 42,-28 42,-44c0,-9 7,-16 15,-16c16,0 47,-27 62,-55c8,-14 14,-15 32,-6c19,10 25,9 41,-11c11,-13 19,-33 20,-44c0,-22 0,-22 36,-3c21,10 41,16 46,13c5,-4 26,-7 46,-8c44,-3 242,63 267,88c12,12 26,15 50,10c27,-5 35,-2 44,14c6,11 8,22 5,25c-3,3 4,11 16,17c25,14 20,42 -16,80c-26,28 -50,30 -137,12c-52,-10 -61,-5 -51,32c4,19 -1,34 -20,57c-15,17 -26,43 -26,59c0,16 -4,30 -10,32c-16,5 -20,114 -5,135c8,10 15,28 15,40c0,12 5,25 10,28c6,3 10,13 10,22c0,9 11,30 24,47c20,27 23,41 20,88c-4,63 -1,68 70,117c30,21 49,28 69,24c27,-5 27,-5 27,50c0,65 12,96 57,144l32,36l-22,28c-12,15 -28,28 -34,28c-8,1 -13,15 -13,35c0,25 6,38 25,50c15,10 22,22 19,31c-4,10 0,15 15,15c15,0 19,4 14,18c-4,9 -13,22 -22,28c-14,11 -42,98 -45,139c0,11 -9,26 -19,33c-13,10 -15,18 -7,32c8,15 5,24 -15,44c-18,18 -24,32 -20,49c4,13 8,32 10,43c2,10 4,21 5,24c1,3 2,9 1,13c-1,4 6,10 14,13c8,4 15,10 15,16c0,5 -4,7 -9,3c-5,-3 -12,-1 -15,3c-6,10 -36,9 -53,-1c-6,-4 -16,0 -23,8c-10,12 -10,21 -1,41c6,14 9,29 6,34c-3,4 2,13 10,20c19,16 19,30 1,30c-8,0 -16,10 -18,23c-3,23 -2,22 -110,28c-9,0 -22,7 -29,15c-6,8 -29,14 -50,14c-38,0 -39,1 -39,36c0,21 -4,33 -10,29c-5,-3 -10,1 -10,9c0,20 37,39 66,33c13,-2 25,0 26,5c2,5 24,12 48,15c25,3 50,10 57,15c7,5 39,7 72,5c45,-4 63,-1 72,9c7,8 35,26 63,39c28,14 78,49 111,80c33,30 67,55 75,55c9,0 20,4 25,9c6,5 18,11 29,13c13,2 -6,17 -60,48c-44,24 -128,74 -189,110c-60,36 -130,71 -155,79c-25,7 -52,17 -61,21c-9,5 -37,11 -62,15c-25,4 -61,18 -78,31c-18,13 -39,24 -46,24c-20,0 -28,59 -13,100c1,3 1,16 0,29c-1,13 3,21 8,17c5,-3 16,14 23,39c7,25 19,45 26,45c15,0 17,16 4,25c-6,3 -6,18 0,37c10,37 7,44 -13,25z" fill="#00649c" id="svg_2"></path>   <path d="m4050,-799c0,-5 -16,-19 -35,-32c-24,-17 -43,-43 -61,-86c-15,-34 -35,-70 -46,-80c-17,-15 -19,-29 -16,-92c3,-89 -8,-104 -67,-82c-31,11 -39,10 -60,-3c-13,-9 -31,-16 -38,-16c-8,0 -24,-13 -37,-30c-13,-16 -28,-30 -35,-30c-6,0 -24,-13 -40,-30c-16,-16 -36,-30 -46,-30c-9,0 -22,-7 -29,-15c-7,-8 -18,-15 -26,-15c-7,0 -17,-7 -22,-16c-6,-12 -23,-16 -62,-16c-29,1 -55,3 -57,6c-3,3 -19,-2 -35,-10c-16,-9 -36,-13 -44,-10c-8,3 -26,-1 -40,-10c-13,-9 -33,-14 -44,-11c-25,7 -39,-12 -33,-43c4,-21 11,-26 36,-28c17,-2 34,-8 38,-14c4,-6 12,-7 19,-3c7,4 16,2 21,-6c4,-8 27,-13 56,-14c40,0 48,-3 51,-20c3,-11 10,-24 18,-28c16,-9 19,-57 4,-57c-5,0 -7,-6 -4,-14c3,-8 1,-17 -5,-21c-21,-12 -11,-24 27,-31c20,-5 44,-8 52,-8c23,-1 23,-39 0,-63c-29,-32 -30,-99 -2,-119c16,-11 21,-21 16,-40c-4,-15 -2,-24 6,-24c6,0 10,-10 9,-22c-1,-13 6,-40 15,-60c9,-21 16,-46 16,-57c0,-11 7,-26 15,-35c8,-8 15,-20 15,-26c0,-6 4,-9 9,-6c5,3 11,-1 15,-9c3,-8 12,-15 21,-15c14,0 20,-17 16,-47c-1,-6 3,-14 9,-18c5,-3 10,-21 10,-38c0,-38 11,-59 26,-49c14,9 38,98 31,115c-6,16 7,41 23,43c5,1 16,2 23,3c10,1 11,14 6,59c-4,31 -8,67 -8,80c-1,14 -10,26 -26,32c-23,9 -37,50 -17,50c19,0 72,-42 72,-57c0,-13 3,-14 12,-5c7,7 15,12 19,12c8,0 20,-59 24,-118c2,-24 10,-51 19,-61c23,-25 20,-33 -19,-60c-39,-27 -40,-28 -19,-56c13,-17 17,-18 36,-6c18,11 22,11 31,-5c11,-20 61,-68 104,-101c24,-18 31,-19 39,-7c5,8 23,16 41,17c17,2 38,9 46,15c8,7 16,9 19,7c3,-3 3,6 1,19c-3,14 -11,30 -18,36c-17,14 -8,47 15,53c21,5 56,-26 46,-41c-6,-11 27,-44 40,-40c5,1 19,-1 30,-5c15,-5 34,-1 59,14l37,22l20,-20c25,-26 32,-107 12,-138c-16,-24 -12,-87 5,-93c7,-2 17,-10 24,-17c6,-6 19,-10 29,-7c10,2 18,-1 18,-7c0,-6 11,-11 25,-11c14,0 25,-4 25,-8c0,-18 37,-8 68,19c30,27 45,33 65,30c5,-1 20,8 34,19c14,11 34,20 44,20c10,0 21,5 24,10c3,6 17,10 30,10c13,0 27,5 30,10c8,13 78,13 91,0c7,-7 21,-1 42,20c23,21 42,30 66,30c26,0 43,8 68,34c57,58 68,72 68,84c0,15 11,15 44,2c19,-7 26,-17 26,-35c0,-14 5,-25 10,-25c6,0 10,5 10,12c0,6 8,4 20,-7c14,-13 18,-25 13,-49l-6,-31l36,38c19,20 38,37 41,37c4,0 11,-11 16,-25c12,-31 64,-59 96,-51c13,4 24,11 24,17c0,6 11,20 24,30c14,11 28,29 31,40c4,11 14,18 23,17c10,-2 18,7 22,27c9,40 50,106 61,99c15,-9 10,39 -6,60c-24,31 -20,141 5,166c11,11 20,26 20,34c0,8 5,18 10,21c6,4 22,25 36,46c28,46 57,60 96,48c16,-4 28,-4 28,2c0,5 6,9 14,9c7,0 16,10 19,21c4,13 11,20 20,16c10,-4 14,7 15,48c1,42 -2,55 -16,60c-15,6 -15,8 6,25c15,12 18,20 10,23c-10,3 -10,7 0,20c11,12 11,20 1,39c-6,13 -8,20 -5,16c4,-3 17,3 28,14c15,15 17,22 7,34c-6,8 -8,14 -4,14c4,0 -3,8 -15,18c-27,22 -20,62 11,62c10,0 19,6 20,13c4,66 27,135 50,151c11,8 20,22 18,33c-5,49 13,83 55,102c44,20 86,55 86,72c0,6 15,23 32,40c29,25 40,29 94,29c55,0 64,3 78,25c9,14 25,25 36,25c25,0 90,31 90,42c0,5 -3,8 -7,6c-42,-20 -67,-28 -120,-38c-34,-7 -66,-12 -70,-11c-5,1 -8,25 -8,53c0,42 -4,53 -17,56c-15,3 -18,-4 -18,-32c0,-20 -4,-36 -10,-36c-5,0 -10,-7 -10,-15c0,-13 -21,-15 -131,-15l-131,0l-29,-31c-16,-17 -29,-36 -29,-41c0,-6 -9,-8 -19,-5c-12,3 -27,-3 -37,-14c-21,-23 -130,-79 -155,-79c-9,0 -19,-7 -23,-15c-6,-17 -36,-21 -36,-5c0,21 -29,9 -50,-20c-18,-25 -26,-28 -57,-24c-20,2 -39,6 -41,9c-2,2 -13,-5 -25,-16c-27,-25 -35,-24 -43,6c-3,14 -12,25 -20,25c-8,0 -14,7 -14,15c0,10 -10,15 -30,15c-29,0 -35,10 -31,46c2,14 -40,27 -51,16c-13,-13 -17,-76 -6,-95c5,-10 6,-26 2,-35c-9,-22 -5,-55 9,-64c7,-4 2,-22 -14,-52c-25,-49 -33,-54 -46,-32c-4,7 -28,36 -52,62c-30,34 -50,48 -64,46c-11,-2 -30,2 -43,9c-18,9 -26,9 -38,0c-12,-10 -17,-8 -26,9c-6,11 -15,18 -20,15c-5,-3 -18,3 -30,15c-19,19 -20,19 -20,1c0,-12 -11,-23 -31,-30c-46,-16 -52,-14 -47,14c3,14 2,28 -2,30c-4,3 -4,21 0,40c4,19 7,35 5,35c-6,0 -90,-45 -95,-51c-8,-10 -93,-49 -107,-49c-7,0 -13,-4 -13,-8c0,-4 -8,-8 -18,-8c-11,0 -18,8 -18,21c-1,86 -5,105 -19,105c-8,0 -15,-9 -15,-19c0,-11 -4,-23 -10,-26c-5,-3 -10,-24 -10,-45c0,-29 -5,-42 -20,-50c-24,-13 -23,-19 -24,103c-1,83 -4,100 -18,108c-10,6 -18,16 -18,23c0,16 -27,29 -41,20c-16,-10 -39,17 -40,45c0,18 -13,36 -44,61c-24,19 -45,42 -47,50c-3,9 -21,-11 -48,-53l-44,-67l-24,22c-13,13 -29,23 -35,24c-7,0 -18,2 -26,2c-8,1 -11,10 -8,23c3,13 -2,28 -14,40c-21,21 -29,24 -29,10z" fill="#00649c" id="svg_3"></path>   <path d="m6183,-1029c-16,-16 -39,-44 -53,-64c-15,-22 -39,-40 -62,-48c-25,-8 -38,-18 -38,-30c0,-10 -5,-21 -11,-25c-6,-3 -9,-18 -6,-31c3,-16 -2,-32 -13,-43c-28,-28 -38,-51 -44,-101c-7,-62 -15,-79 -36,-79c-30,0 -33,-19 -5,-32c14,-6 24,-17 21,-24c-2,-6 1,-17 7,-23c8,-8 5,-16 -11,-32c-15,-13 -21,-27 -17,-39c3,-10 1,-21 -4,-24c-6,-4 -7,-14 -4,-23c4,-9 -1,-19 -12,-25c-10,-6 -13,-13 -7,-17c5,-3 11,-35 13,-71c3,-53 1,-65 -11,-65c-9,0 -27,-11 -40,-24c-21,-19 -32,-22 -66,-17c-43,5 -74,-13 -74,-43c0,-7 -11,-22 -25,-33c-14,-11 -23,-23 -20,-28c3,-5 -4,-18 -16,-29c-18,-17 -22,-32 -23,-84c0,-36 4,-71 10,-78c21,-26 23,-69 4,-82c-20,-14 -44,-59 -54,-99c-4,-19 -13,-28 -27,-28c-13,0 -24,-10 -30,-30c-6,-16 -15,-30 -21,-30c-5,0 -18,-10 -28,-22c-28,-35 -81,-30 -122,13l-34,34l-34,-37c-19,-21 -38,-38 -43,-38c-5,0 -7,20 -5,45c6,51 1,62 -18,37c-14,-19 -16,-16 -28,41c-4,18 -13,27 -26,27c-11,0 -20,-5 -20,-11c0,-7 -22,-34 -50,-60c-39,-37 -60,-49 -95,-54c-34,-6 -51,-15 -72,-41c-29,-37 -43,-43 -43,-19c0,23 -47,30 -83,12c-18,-9 -54,-24 -80,-33c-26,-9 -50,-21 -53,-25c-3,-5 -15,-9 -27,-9c-12,0 -40,-15 -61,-33c-37,-32 -40,-33 -85,-23c-25,5 -49,14 -52,18c-3,5 -10,8 -15,7c-20,-3 -35,1 -30,10c3,5 -5,12 -19,15c-17,4 -25,13 -25,29c-1,21 -1,22 -15,3c-8,-11 -15,-31 -15,-44c0,-13 -8,-36 -18,-50c-23,-34 -68,-128 -79,-167c-5,-18 -16,-31 -28,-33c-11,-2 -24,-5 -30,-6c-5,-2 -14,-4 -18,-4c-25,-2 -47,-48 -48,-99c-3,-100 -4,-108 -30,-136c-15,-15 -31,-27 -38,-27c-6,0 -11,-5 -11,-11c0,-5 5,-7 10,-4c28,17 26,-14 -6,-101c-22,-61 -32,-104 -28,-120c4,-16 2,-24 -6,-24c-7,0 0,-16 15,-36c15,-19 24,-38 21,-41c-3,-4 1,-14 10,-24c13,-14 13,-21 4,-40c-11,-19 -10,-24 5,-35c9,-7 25,-11 34,-9c21,4 88,7 113,6c23,-1 34,-46 17,-68c-8,-10 -9,-14 -2,-10c6,4 15,2 18,-3c4,-7 19,-9 35,-5c19,4 31,2 37,-8c14,-25 50,-37 107,-37c31,0 56,-4 56,-8c0,-5 15,-15 33,-24c31,-15 34,-15 60,8c28,24 60,30 91,18c17,-6 22,-34 7,-34c-17,0 -9,-49 10,-55c10,-3 21,-15 24,-26c4,-10 12,-19 18,-19c14,0 52,-55 62,-90c4,-14 16,-37 26,-52c11,-14 19,-40 19,-56c0,-26 5,-31 30,-37c41,-9 61,-43 59,-96c-2,-63 -1,-69 16,-63c8,3 31,-8 52,-25c39,-33 57,-29 58,11c0,20 5,22 64,20c35,-1 66,-4 69,-7c3,-3 17,2 30,11l25,16l-5,-48c-3,-27 -9,-56 -12,-65c-4,-9 4,-27 21,-46c114,-128 143,-168 143,-199c0,-7 5,-16 11,-19c14,-9 39,26 34,45c-3,8 9,25 25,39c17,13 30,29 30,35c0,14 96,99 123,109c9,3 17,11 17,16c0,5 8,12 18,15c10,4 18,14 17,24c-3,24 -27,72 -37,72c-4,0 -8,14 -8,30c0,17 -7,47 -15,67c-9,20 -13,43 -10,51c2,7 0,18 -5,25c-6,7 -19,24 -31,40c-11,15 -27,27 -35,27c-8,0 -14,5 -14,11c0,5 -4,8 -8,5c-10,-6 -65,43 -81,72c-10,18 -9,29 3,54c9,17 16,36 16,43c0,6 11,22 24,34c36,34 58,109 45,155c-8,28 -7,43 5,66l14,30l-384,0c-427,0 -396,-6 -375,67c5,18 6,33 2,35c-5,2 -11,24 -15,50c-7,44 -5,49 23,74c33,29 40,58 18,67c-18,7 -10,67 9,74c9,3 14,22 14,54c0,27 3,49 8,49c4,0 147,1 317,1l310,1l3,-22c3,-15 16,-27 40,-37l37,-14l2,-72c2,-56 -2,-78 -18,-103c-13,-21 -21,-55 -23,-98c-3,-59 -1,-67 20,-81c16,-10 25,-11 30,-4c3,6 15,9 25,6c19,-5 63,23 88,56c12,17 15,17 30,3c15,-14 22,-14 67,3c27,10 79,24 116,31c65,13 66,14 57,38c-6,14 -7,32 -5,39c3,8 -1,33 -9,56c-8,23 -15,51 -15,63c0,21 -28,54 -47,54c-6,0 -16,7 -23,15c-25,30 25,163 63,165c5,0 5,5 1,11c-3,6 0,15 7,20c11,8 10,13 -8,28c-13,11 -23,26 -23,34c0,8 -8,14 -17,13c-26,-2 -28,32 -3,76c21,38 21,40 4,60c-19,20 -18,20 11,44c31,25 98,33 110,14c3,-5 14,-10 23,-10c9,0 28,-9 42,-20c26,-21 85,-27 95,-10c3,6 15,10 26,10c17,0 18,3 9,21c-6,11 -10,25 -7,32c2,6 -2,22 -9,35c-9,18 -9,30 0,53c9,26 8,33 -7,43c-23,18 -21,36 7,69c14,16 27,34 29,40c5,13 6,13 78,-40c24,-18 52,-38 62,-45c10,-7 19,-26 20,-43c3,-38 21,-58 47,-50c11,4 20,2 20,-4c0,-6 9,-11 20,-11c12,0 20,7 20,17c0,13 3,14 11,6c6,-6 18,-9 25,-6c8,3 14,-1 14,-8c0,-22 44,34 45,57c1,13 7,29 13,37c16,18 21,78 9,94c-11,15 -1,47 12,38c6,-3 9,23 7,67c-2,40 -5,73 -6,73c-1,0 -4,17 -5,38c-3,32 -2,37 10,27c32,-26 79,17 50,46c-8,9 -15,21 -15,27c0,15 -26,38 -62,54c-20,9 -26,17 -21,29c5,13 3,16 -10,11c-11,-4 -22,1 -29,13c-7,11 -22,20 -34,20c-11,0 -29,9 -39,20c-10,11 -26,22 -36,25c-22,7 -25,25 -4,25c8,0 12,6 9,14c-3,8 -1,17 5,21c18,11 12,49 -9,63c-22,13 -26,43 -10,73c8,14 6,25 -6,43c-17,28 -12,46 14,46c15,1 14,3 -3,16c-14,11 -16,18 -8,21c8,3 11,14 7,27c-4,16 4,30 33,56l38,35l-30,5c-34,6 -42,26 -26,72c9,24 8,34 -1,40c-17,11 34,58 62,58c10,0 25,8 32,18c7,11 23,24 36,31c12,6 22,18 22,26c0,19 -3,19 -50,-5c-21,-11 -60,-27 -86,-36c-44,-15 -47,-15 -65,5c-11,12 -16,27 -12,36c3,10 0,20 -7,25c-9,6 -9,13 -1,28c6,11 8,27 5,35c-3,8 -1,18 5,22c7,4 5,14 -5,31c-10,15 -12,24 -5,24c6,0 11,3 11,8c0,4 -25,8 -55,9c-48,1 -58,-2 -82,-26z" fill="#00649c" id="svg_4"></path>   <path d="m3725,-1970c3,-5 14,-10 23,-10c15,0 15,2 2,10c-20,13 -33,13 -25,0z" fill="#00649c" id="svg_5"></path>   <path d="m3782,-2100l3,-75l-28,-3c-25,-3 -28,-6 -22,-32c4,-16 0,-43 -9,-64c-8,-20 -14,-39 -13,-42c3,-9 -52,-39 -59,-32c-3,4 -7,27 -8,52c-1,25 -5,48 -9,52c-4,4 -7,17 -7,30c0,40 -47,42 -65,1c-6,-12 -19,-22 -29,-22c-33,0 -27,-41 11,-71c18,-14 33,-33 33,-40c0,-18 -27,-61 -57,-93c-13,-13 -24,-38 -25,-55c-1,-17 -3,-44 -4,-61c-1,-16 -2,-36 -3,-44c-1,-10 -10,-12 -37,-8c-27,5 -39,2 -51,-13c-9,-10 -20,-17 -23,-15c-12,7 -51,-41 -51,-61c0,-11 2,-35 4,-54c3,-26 -2,-42 -19,-63c-13,-16 -24,-37 -24,-47c0,-10 -4,-22 -10,-25c-5,-3 -10,-17 -10,-29c0,-13 -6,-29 -14,-35c-16,-13 -21,-117 -6,-126c4,-3 11,-22 15,-42c3,-21 18,-50 32,-65c23,-24 25,-31 15,-52c-11,-24 -10,-25 18,-21c16,2 34,7 41,10c6,4 29,7 51,7c69,-1 132,-86 96,-130c-8,-9 -20,-30 -28,-45c-12,-25 -19,-28 -44,-23c-21,5 -47,-2 -90,-23c-95,-47 -192,-72 -262,-69c-47,2 -64,-1 -78,-15c-24,-24 -40,-17 -43,19c-3,37 -29,57 -55,43c-23,-12 -21,-14 -42,29c-10,20 -24,32 -37,32c-11,0 -22,8 -26,18c-14,39 -25,43 -50,18c-14,-14 -22,-29 -19,-34c11,-17 -25,-52 -53,-52c-16,0 -31,-7 -35,-15c-7,-20 -35,-19 -43,1c-4,10 -13,14 -28,10c-15,-4 -29,2 -45,18c-12,14 -30,25 -39,25c-36,0 -100,9 -111,16c-17,11 -23,-1 -7,-17c8,-7 17,-31 21,-53c4,-22 12,-45 17,-52c6,-6 11,-22 13,-35c1,-13 7,-32 13,-43c6,-11 16,-37 21,-58l11,-38l-92,7c-50,4 -103,10 -117,14c-36,9 -55,-28 -34,-67c7,-16 14,-34 14,-40c0,-7 5,-13 10,-13c6,0 10,-5 10,-11c0,-6 13,-24 30,-41c28,-28 35,-41 31,-62c-1,-5 8,-19 20,-32c12,-13 19,-24 16,-24c-4,0 0,-11 9,-25c9,-14 16,-44 16,-68c-1,-35 5,-49 34,-79c19,-21 39,-38 46,-38c6,0 17,-8 24,-17c12,-16 13,-15 14,15c0,21 5,32 14,32c8,0 26,14 39,30c14,17 32,30 39,30c18,1 72,50 88,79c15,29 25,17 34,-44c7,-42 21,-58 46,-50c8,3 28,-2 44,-10c31,-16 92,-20 100,-6c3,5 22,12 41,15c25,5 42,17 57,39c35,54 98,71 98,26c0,-10 9,-23 20,-29c16,-9 20,-8 20,5c0,18 48,64 68,65c19,0 135,50 153,66c13,12 18,11 37,-2c12,-8 22,-12 22,-8c0,3 6,2 13,-4c7,-6 41,-12 77,-14c71,-3 83,-11 115,-72c11,-21 25,-41 32,-43c7,-3 10,-9 7,-14c-3,-5 0,-9 5,-9c18,0 12,-29 -9,-48c-11,-9 -35,-22 -52,-28c-20,-6 -32,-17 -33,-30c-1,-17 5,-19 48,-19c57,0 63,-6 43,-37c-18,-27 -6,-54 18,-45c9,4 20,7 24,9c4,1 15,12 25,25c35,44 47,30 44,-52c-3,-61 -1,-73 10,-64c9,9 17,8 27,0c10,-8 20,-9 33,-3c10,6 42,22 72,38l55,27l14,-21c17,-27 58,-29 64,-5c3,10 17,25 32,33c25,13 31,13 58,-3c40,-23 47,-22 59,13c8,22 17,30 34,30c26,0 46,-27 65,-85c18,-56 17,-55 52,-40c21,8 40,10 55,4c31,-12 30,8 -2,33c-14,11 -25,28 -25,39c0,11 -11,24 -25,31c-24,11 -30,24 -26,62c0,10 -5,24 -14,30c-11,9 -12,19 -5,50c7,33 6,39 -11,43c-22,6 -23,11 -8,50c8,21 7,30 -4,38c-25,18 -25,39 1,52c32,17 42,16 64,-4c17,-15 18,-15 18,4c0,12 -8,23 -19,26c-18,4 -101,107 -101,125c0,5 -9,17 -20,27c-22,20 -20,28 8,30c66,6 102,18 102,33c0,30 -12,62 -23,62c-6,0 -18,7 -27,15c-9,8 -36,16 -59,17c-48,2 -57,9 -40,36c25,39 7,48 -86,46l-87,-1l6,43c3,24 1,46 -4,49c-6,3 -10,15 -10,25c0,11 -12,31 -26,45c-18,19 -23,30 -16,37c6,6 8,16 6,22c-4,10 23,94 61,187c4,11 0,18 -14,22c-30,7 -26,24 10,42c20,11 29,22 25,31c-3,8 1,17 8,20c8,3 14,15 15,27c1,12 2,45 4,72c3,69 27,102 82,117c33,9 45,17 45,31c0,21 68,165 82,173c4,3 8,14 8,25c0,11 11,45 25,75c14,30 25,59 25,64c0,6 4,10 10,10c11,0 5,99 -7,111c-5,5 -22,2 -38,-7c-22,-11 -43,-13 -80,-8c-51,7 -74,25 -75,59c-1,19 -1,19 -11,2c-7,-13 -7,-27 0,-49c16,-44 14,-49 -14,-42c-18,5 -25,2 -25,-9c0,-11 -9,-15 -35,-13c-24,2 -35,-1 -35,-10c0,-8 -7,-14 -15,-14c-17,0 -105,60 -105,72c0,4 -7,8 -15,8c-8,0 -15,6 -15,13c0,6 -4,18 -9,26c-8,12 -12,12 -25,2c-21,-18 -49,-6 -64,26c-11,25 -10,30 17,55c17,16 35,28 41,28c6,0 1,13 -11,29c-12,17 -23,47 -24,68c-1,21 -3,47 -4,58c-1,14 -8,21 -22,21c-19,0 -20,-5 -17,-76z" fill="#00649c" id="svg_6"></path>   <path d="m4364,-3733l1,-42l-60,-10c-35,-6 -55,-14 -48,-18c7,-4 20,-23 28,-41c9,-18 25,-43 35,-54c11,-12 20,-26 20,-31c0,-5 10,-11 21,-13c30,-4 43,-29 35,-63l-7,-28l-29,28c-29,28 -30,28 -50,10c-18,-16 -18,-19 -4,-30c12,-8 15,-22 12,-43c-3,-21 0,-33 10,-37c10,-4 13,-17 10,-49c-3,-25 0,-50 8,-60c6,-9 10,-26 7,-36c-3,-13 5,-29 24,-47c16,-15 35,-41 43,-56c9,-18 20,-27 30,-24c12,3 15,-3 12,-30c-5,-36 -9,-38 -46,-22c-19,9 -31,8 -57,-5c-17,-9 -33,-16 -34,-16c-1,0 -15,32 -30,70c-24,59 -32,70 -49,68c-13,-2 -22,-12 -24,-25c-4,-27 -40,-31 -75,-8c-20,13 -25,13 -45,-1c-12,-8 -22,-24 -22,-35c0,-16 -6,-19 -37,-16c-22,1 -44,10 -53,20c-15,18 -18,18 -79,-13c-38,-20 -72,-30 -86,-27c-14,2 -26,0 -27,-5c-2,-5 -10,-7 -19,-3c-11,4 -14,20 -12,67c1,34 5,68 8,76c4,12 3,13 -9,3c-9,-7 -18,-21 -21,-31c-3,-10 -14,-18 -23,-18c-9,0 -25,-3 -34,-6c-24,-11 -44,29 -29,60c10,24 10,24 -44,24c-51,0 -54,1 -51,24c3,33 21,52 54,60c53,11 56,19 26,72c-36,65 -53,89 -62,88c-4,-1 -6,1 -5,5c1,3 -26,8 -60,9c-34,2 -67,8 -74,14c-7,6 -13,7 -13,3c0,-5 -8,-1 -17,8c-17,14 -24,12 -98,-23c-44,-22 -88,-39 -97,-40c-18,0 -58,-45 -58,-66c0,-25 -20,-25 -45,2c-13,14 -22,30 -20,35c3,4 1,10 -5,14c-14,8 -60,-25 -70,-50c-7,-19 -30,-29 -78,-35c-4,-1 -15,-8 -24,-17c-14,-13 -24,-13 -65,-3c-26,7 -65,14 -86,17c-40,6 -56,25 -60,71l-2,29l-29,-29c-15,-16 -41,-35 -56,-43c-15,-8 -39,-28 -53,-45c-14,-16 -31,-30 -37,-30c-8,0 -10,-13 -7,-35c6,-46 -3,-50 -32,-14c-13,16 -28,29 -33,29c-5,0 -27,18 -48,40c-33,34 -38,45 -37,87c0,46 -8,68 -47,125c-10,15 -15,31 -12,36c3,5 -10,23 -28,41l-32,32l-32,-31c-18,-16 -36,-30 -42,-30c-6,0 -15,-10 -20,-22c-20,-46 -45,-77 -61,-78c-3,0 -11,11 -17,24c-12,27 -39,29 -54,3c-11,-21 -41,-22 -58,-2c-16,20 -26,19 -60,-5c-46,-32 -127,-15 -155,33c-10,18 -25,38 -32,45c-7,7 -13,19 -13,27c0,17 -22,25 -68,25c-35,0 -39,-3 -60,-50c-13,-27 -29,-50 -36,-50c-7,0 -29,11 -48,24c-20,13 -41,20 -47,16c-17,-10 -137,-3 -161,10c-17,9 -24,7 -43,-13c-12,-13 -32,-27 -43,-31c-16,-5 -20,-12 -17,-26c3,-11 0,-20 -6,-20c-11,0 -47,-59 -43,-72c1,-4 -7,-10 -18,-13c-11,-4 -20,-10 -20,-14c0,-4 -10,-7 -22,-8c-12,-1 -32,-15 -45,-30c-12,-15 -28,-34 -34,-41c-6,-8 -20,-12 -30,-9c-14,4 -19,-3 -25,-27c-3,-17 -10,-36 -15,-42c-5,-6 -10,-31 -10,-55c-1,-32 -8,-49 -25,-64c-13,-11 -40,-54 -62,-95c-32,-61 -37,-80 -31,-105c6,-20 4,-36 -5,-50c-16,-24 -27,-95 -28,-184c-1,-60 1,-65 31,-88c17,-13 31,-33 31,-43c0,-10 4,-21 9,-24c5,-3 12,-26 15,-51c4,-25 11,-45 16,-45c16,0 41,-60 38,-88c-2,-18 -10,-28 -23,-30c-34,-6 -37,-18 -21,-82c9,-34 16,-74 16,-89c0,-25 26,-61 43,-61c4,0 16,9 28,21c19,19 28,20 97,14c70,-7 112,-24 112,-45c0,-18 -48,-60 -68,-60c-14,0 -26,-9 -32,-22c-13,-31 -32,-53 -52,-61c-31,-11 6,-73 60,-101c48,-25 185,-36 223,-18c46,23 98,2 143,-58c51,-67 57,-70 121,-76c46,-4 61,-9 77,-29c11,-14 26,-25 33,-25c7,0 15,-7 17,-16c3,-18 68,-44 111,-44c17,0 37,-10 52,-26c34,-37 170,-104 214,-105c55,-2 163,-30 193,-51c14,-10 32,-18 40,-18c8,0 25,-11 38,-25c16,-17 30,-23 42,-19c11,3 35,-1 54,-10c19,-9 50,-23 69,-32c19,-9 35,-22 35,-28c0,-23 76,-91 126,-112c38,-16 57,-2 24,18c-22,14 -26,38 -10,66c5,9 16,34 25,55c8,22 23,41 34,44c11,3 24,18 30,35c6,16 19,32 30,35c10,3 22,14 25,25c4,17 11,20 38,15c61,-9 111,50 101,120c-5,38 -3,43 20,54c16,7 31,26 37,45c6,18 19,36 29,39c9,3 25,23 35,45c28,63 73,83 184,82c38,-1 45,2 60,29c15,26 21,29 47,24c17,-4 48,-8 70,-9c22,-2 52,-8 67,-14c21,-9 29,-8 35,1c10,16 88,42 101,33c6,-3 8,2 5,13c-4,16 2,20 35,26c28,4 42,12 45,27c8,30 50,21 57,-13c3,-14 19,-43 37,-64l32,-38l20,24c11,13 20,30 21,37c0,6 7,12 15,12c29,0 91,82 86,113c-2,15 2,17 17,13c11,-4 24,0 32,9c14,17 40,20 40,5c0,-18 35,-11 48,10c7,11 18,17 27,14c9,-4 15,-1 15,7c0,8 12,22 25,32c24,17 27,17 63,0c20,-9 42,-24 48,-32c8,-10 13,-11 18,-3c4,7 31,12 60,12c29,0 56,3 60,7c15,15 79,12 91,-4c7,-10 19,-14 29,-10c9,4 16,3 16,-1c0,-4 29,-7 64,-7c48,0 69,5 84,18c12,11 23,14 26,8c3,-5 20,-12 37,-16c16,-4 44,-20 60,-36c31,-31 55,-37 61,-17c3,8 12,5 27,-9c13,-12 29,-19 36,-17c7,3 15,-4 18,-15c5,-21 27,-30 27,-11c0,6 9,10 19,10c11,0 34,15 52,32c20,21 34,28 37,20c6,-20 22,-14 34,14c8,17 18,24 29,21c10,-3 25,4 35,14c9,10 21,16 27,12c6,-4 8,4 3,20c-5,21 1,32 31,61c40,38 53,44 53,24c0,-8 3,-9 8,-3c11,15 70,55 82,55c5,0 10,5 10,10c0,6 7,10 15,10c8,0 15,6 15,14c0,8 14,19 30,25c35,12 36,18 13,51c-10,14 -16,25 -15,25c4,0 -5,29 -18,60c-14,34 -19,65 -10,70c4,3 11,17 14,32c10,41 30,83 39,83c4,0 12,12 18,26c14,38 -23,90 -68,99c-19,3 -38,3 -43,0c-6,-4 -24,-4 -40,0c-21,5 -30,13 -30,26c0,11 -6,22 -13,25c-16,6 -19,63 -4,82c5,6 6,12 3,12c-4,0 -2,9 4,20c8,14 7,26 -2,42c-22,39 -50,68 -61,61c-6,-3 -7,-1 -3,6c4,7 -4,24 -21,40c-73,75 -89,100 -74,117c5,5 11,23 14,39l6,30l-79,0l-79,0l-6,-32c-3,-18 -10,-33 -14,-33c-4,0 -28,14 -52,32c-24,18 -52,31 -61,30c-20,-4 -30,25 -27,76c4,52 -14,80 -54,84c-30,3 -32,6 -38,48c-3,25 -16,63 -28,85c-11,21 -21,44 -21,50c-1,12 -35,55 -45,55c-20,0 -66,66 -67,96c-1,30 -4,34 -30,34c-15,0 -28,-4 -28,-8c0,-5 -11,-14 -23,-21c-20,-10 -30,-10 -60,3c-21,8 -37,19 -37,23c0,4 -22,9 -48,10l-49,2l1,-42z" fill="#00649c" id="svg_7"></path>  </g> </g></svg>
